<svg width="24" height="24" viewBox="0 0 24 24" fill="none" xmlns="http://www.w3.org/2000/svg">
<g clip-path="url(#clip0_2249_43564)">
<path d="M5.30794 17.1536C5.54877 17.1536 5.7677 17.0734 6.05232 16.9128L9.61363 14.9862L13.5033 17.1682C13.8098 17.3288 14.1237 17.4164 14.4302 17.4164C14.7294 17.4164 15.0286 17.3361 15.2913 17.1828L18.9402 15.1249C19.4364 14.8476 19.6554 14.4535 19.6554 13.8988V4.09794C19.6554 3.48493 19.2905 3.12004 18.6848 3.12004C18.4439 3.12004 18.2323 3.20761 17.9404 3.36816L14.2404 5.42613L10.4018 3.09814C10.1318 2.94489 9.83256 2.86462 9.53335 2.86462C9.23415 2.86462 8.94223 2.93759 8.67951 3.09085L5.05982 5.14882C4.55627 5.42613 4.33734 5.81292 4.33734 6.36755V16.183C4.33734 16.7961 4.70223 17.1536 5.30794 17.1536ZM8.97143 13.6945L5.95015 15.3584C5.89906 15.3803 5.85528 15.4022 5.81879 15.4022C5.73851 15.4022 5.68743 15.3365 5.68743 15.2416V6.73973C5.68743 6.53539 5.76041 6.40403 5.95745 6.29457L8.7379 4.68176C8.81817 4.63068 8.89115 4.59419 8.97143 4.5504V13.6945ZM10.3434 13.7383V4.72555C10.4164 4.76204 10.504 4.80582 10.5769 4.84961L13.6493 6.70324V15.5846C13.5544 15.5335 13.4523 15.4825 13.3501 15.4314L10.3434 13.7383ZM15.0213 15.6941V6.57918L18.0499 4.92988C18.0863 4.90799 18.1301 4.8861 18.1666 4.8861C18.2469 4.8861 18.3053 4.95178 18.3053 5.03935V13.5121C18.3053 13.7164 18.2323 13.8478 18.0426 13.9572L15.357 15.5117C15.2475 15.5773 15.1307 15.643 15.0213 15.6941Z" fill="#02AF86"/>
<circle cx="15.6501" cy="14.4831" r="5.04167" fill="white"/>
<path d="M11.6306 14.7361C11.6306 17.0256 13.4868 18.8817 15.7762 18.8817C16.5393 18.8817 17.2434 18.67 17.8441 18.3057L19.8233 20.2849C20.0153 20.4769 20.2714 20.5705 20.5372 20.5705C21.1084 20.5705 21.5318 20.1372 21.5318 19.5759C21.5318 19.3101 21.4382 19.0639 21.2462 18.8669L19.2867 16.9025C19.6904 16.2821 19.9267 15.5387 19.9267 14.7361C19.9267 12.4418 18.0706 10.5856 15.7762 10.5856C13.4868 10.5856 11.6306 12.4418 11.6306 14.7361ZM13.0338 14.7361C13.0338 13.2197 14.2647 11.9937 15.7762 11.9937C17.2926 11.9937 18.5235 13.2197 18.5235 14.7361C18.5235 16.2526 17.2926 17.4785 15.7762 17.4785C14.2647 17.4785 13.0338 16.2526 13.0338 14.7361Z" fill="#02AF86"/>
</g>
<defs>
<clipPath id="clip0_2249_43564">
<rect width="24" height="24" fill="white"/>
</clipPath>
</defs>
</svg>
