<svg width="171" height="32" viewBox="0 0 171 32" fill="none" xmlns="http://www.w3.org/2000/svg">
<g clip-path="url(#clip0_2223_41041)">
<path d="M31.8604 31.5446C31.5809 31.5446 31.3129 31.4336 31.1153 31.236C30.9177 31.0384 30.8066 30.7703 30.8066 30.4909V12.4473C30.8066 12.1678 30.9177 11.8998 31.1153 11.7022C31.3129 11.5046 31.5809 11.3936 31.8604 11.3936C32.1399 11.3936 32.4079 11.5046 32.6055 11.7022C32.8031 11.8998 32.9142 12.1678 32.9142 12.4473V30.4909C32.9142 30.7703 32.8031 31.0384 32.6055 31.236C32.4079 31.4336 32.1399 31.5446 31.8604 31.5446Z" fill="#F42F66"/>
<path d="M14.409 23.2733C14.2708 23.2738 14.1339 23.247 14.006 23.1944C13.8782 23.1418 13.762 23.0645 13.6641 22.967C13.5662 22.8694 13.4886 22.7535 13.4356 22.6258C13.3826 22.4982 13.3553 22.3613 13.3553 22.2231V7.64754C13.3553 6.44352 12.877 5.28882 12.0256 4.43745C11.1742 3.58608 10.0195 3.10779 8.81553 3.10779C7.61151 3.10779 6.45681 3.58608 5.60544 4.43745C4.75407 5.28882 4.27578 6.44352 4.27578 7.64754V22.2231C4.26006 22.4915 4.14236 22.7437 3.9468 22.9281C3.75125 23.1125 3.49263 23.2152 3.22383 23.2152C2.95503 23.2152 2.6964 23.1125 2.50085 22.9281C2.3053 22.7437 2.1876 22.4915 2.17188 22.2231V7.64754C2.17187 6.77508 2.34371 5.91118 2.67759 5.10514C3.01146 4.2991 3.50085 3.5667 4.11777 2.94978C4.73469 2.33286 5.46709 1.84349 6.27313 1.50962C7.07917 1.17575 7.94307 1.00391 8.81553 1.00391C9.68798 1.00391 10.5519 1.17575 11.3579 1.50962C12.164 1.84349 12.8964 2.33286 13.5133 2.94978C14.1302 3.5667 14.6196 4.2991 14.9535 5.10514C15.2873 5.91118 15.4592 6.77508 15.4592 7.64754V22.2231C15.4592 22.5016 15.3485 22.7688 15.1516 22.9657C14.9546 23.1626 14.6875 23.2733 14.409 23.2733Z" fill="#1DA4B8"/>
<path d="M14.4091 23.2726C14.2709 23.273 14.1339 23.2462 14.0061 23.1937C13.8783 23.1411 13.7621 23.0638 13.6642 22.9663C13.5663 22.8687 13.4886 22.7528 13.4356 22.6251C13.3826 22.4975 13.3553 22.3606 13.3553 22.2224V7.64683C13.3347 6.76111 13.4913 5.88021 13.816 5.05589C14.1407 4.23157 14.6269 3.48047 15.246 2.84674C15.8651 2.21302 16.6047 1.70944 17.4212 1.36564C18.2378 1.02183 19.1148 0.844727 20.0008 0.844727C20.8867 0.844727 21.7638 1.02183 22.5803 1.36564C23.3968 1.70944 24.1364 2.21302 24.7555 2.84674C25.3747 3.48047 25.8609 4.23157 26.1855 5.05589C26.5102 5.88021 26.6669 6.76111 26.6462 7.64683V18.6462C26.6462 18.9257 26.5352 19.1937 26.3376 19.3913C26.1399 19.5889 25.8719 19.6999 25.5925 19.6999C25.313 19.6999 25.045 19.5889 24.8474 19.3913C24.6498 19.1937 24.5387 18.9257 24.5387 18.6462V7.64683C24.5387 6.44281 24.0604 5.28811 23.2091 4.43674C22.3577 3.58537 21.203 3.10709 19.999 3.10709C18.795 3.10709 17.6403 3.58537 16.7889 4.43674C15.9375 5.28811 15.4592 6.44281 15.4592 7.64683V22.2224C15.4592 22.5009 15.3486 22.768 15.1516 22.965C14.9547 23.1619 14.6876 23.2726 14.4091 23.2726Z" fill="#8FD536"/>
<path d="M28.7288 23.2007C27.6182 23.1988 26.5536 22.7567 25.7683 21.9714C24.983 21.1861 24.541 20.1215 24.5391 19.011V12.8184C24.5391 12.5389 24.6501 12.2709 24.8477 12.0733C25.0453 11.8757 25.3134 11.7646 25.5928 11.7646C25.8723 11.7646 26.1403 11.8757 26.3379 12.0733C26.5355 12.2709 26.6466 12.5389 26.6466 12.8184V19.011C26.669 19.5487 26.8983 20.0569 27.2867 20.4295C27.6751 20.802 28.1924 21.01 28.7306 21.01C29.2688 21.01 29.7861 20.802 30.1745 20.4295C30.5629 20.0569 30.7922 19.5487 30.8146 19.011C30.8146 18.7315 30.9256 18.4635 31.1233 18.2658C31.3209 18.0682 31.5889 17.9572 31.8684 17.9572C32.1479 17.9572 32.4159 18.0682 32.6135 18.2658C32.8111 18.4635 32.9221 18.7315 32.9221 19.011C32.9202 20.1222 32.4777 21.1873 31.6916 21.9727C30.9055 22.7581 29.84 23.1997 28.7288 23.2007Z" fill="#F5AF00"/>
<path d="M51.1565 11.3896C49.9881 11.3896 48.846 11.7361 47.8745 12.3852C46.903 13.0343 46.1458 13.957 45.6987 15.0364C45.2516 16.1159 45.1346 17.3037 45.3625 18.4496C45.5905 19.5955 46.1531 20.6481 46.9793 21.4743C47.8055 22.3005 48.8581 22.8631 50.004 23.0911C51.1499 23.319 52.3377 23.202 53.4172 22.7549C54.4966 22.3078 55.4193 21.5506 56.0684 20.5791C56.7175 19.6076 57.0639 18.4655 57.0639 17.2971C57.062 15.7309 56.4391 14.2295 55.3316 13.122C54.2242 12.0146 52.7227 11.3916 51.1565 11.3896ZM51.1565 21.1801C50.3876 21.1801 49.6361 20.952 48.9968 20.5248C48.3576 20.0976 47.8595 19.4904 47.5654 18.78C47.2714 18.0696 47.1946 17.288 47.3449 16.5339C47.4951 15.7799 47.8656 15.0874 48.4096 14.544C48.9535 14.0006 49.6463 13.6307 50.4005 13.4812C51.1546 13.3316 51.9362 13.4091 52.6463 13.7038C53.3564 13.9985 53.9632 14.4972 54.3898 15.1368C54.8165 15.7765 55.0438 16.5283 55.0431 17.2971C55.0412 18.327 54.631 19.3141 53.9024 20.0419C53.1738 20.7698 52.1864 21.1791 51.1565 21.1801Z" fill="#333333"/>
<path d="M44.2356 11.3896C42.6691 11.3906 41.1671 12.0133 40.0594 13.1209C38.9517 14.2286 38.3291 15.7306 38.3281 17.2971V22.1905C38.3281 22.4585 38.4346 22.7155 38.6241 22.905C38.8136 23.0945 39.0706 23.201 39.3385 23.201C39.6065 23.201 39.8636 23.0945 40.0531 22.905C40.2426 22.7155 40.349 22.4585 40.349 22.1905V17.2971C40.35 16.2666 40.7597 15.2786 41.4884 14.5499C42.2171 13.8213 43.2051 13.4115 44.2356 13.4105C44.5036 13.4105 44.7606 13.3041 44.9501 13.1146C45.1396 12.9251 45.246 12.6681 45.246 12.4001C45.246 12.1321 45.1396 11.8751 44.9501 11.6856C44.7606 11.4961 44.5036 11.3896 44.2356 11.3896Z" fill="#333333"/>
<path d="M91.1777 16.2866C90.9098 16.2866 90.6528 16.3931 90.4633 16.5826C90.2738 16.7721 90.1673 17.0291 90.1673 17.2971C90.1656 18.1505 89.8825 18.9795 89.362 19.6557C88.8414 20.3319 88.1124 20.8176 87.2879 21.0376C86.4633 21.2575 85.5893 21.1995 84.801 20.8724C84.0128 20.5453 83.3545 19.9674 82.9279 19.2283C82.5014 18.4892 82.3305 17.63 82.4416 16.7839C82.5528 15.9378 82.9399 15.152 83.5429 14.5481C84.1459 13.9443 84.9312 13.5561 85.7771 13.4437C86.6231 13.3313 87.4825 13.501 88.2222 13.9265L85.5698 16.5826C85.3784 16.774 85.2709 17.0336 85.2709 17.3043C85.2709 17.575 85.3784 17.8346 85.5698 18.026C85.7612 18.2175 86.0208 18.325 86.2915 18.325C86.5622 18.325 86.8219 18.2175 87.0133 18.026L90.4741 14.5617C90.5678 14.4682 90.6421 14.3571 90.6929 14.2348C90.7436 14.1125 90.7697 13.9814 90.7697 13.8489C90.7697 13.7165 90.7436 13.5854 90.6929 13.4631C90.6421 13.3408 90.5678 13.2298 90.4741 13.1362C89.508 12.1693 88.2364 11.5674 86.8762 11.433C85.516 11.2985 84.1513 11.6399 83.0146 12.3989C81.8779 13.158 81.0396 14.2877 80.6425 15.5956C80.2454 16.9035 80.3141 18.3086 80.837 19.5715C81.3598 20.8343 82.3044 21.8769 83.5098 22.5213C84.7151 23.1658 86.1066 23.3723 87.4472 23.1058C88.7878 22.8392 89.9945 22.116 90.8616 21.0595C91.7288 20.0029 92.2027 18.6784 92.2026 17.3115C92.2046 17.1764 92.1794 17.0423 92.1286 16.917C92.0777 16.7918 92.0023 16.678 91.9068 16.5825C91.8112 16.4869 91.6975 16.4115 91.5722 16.3607C91.447 16.3099 91.3129 16.2847 91.1777 16.2866Z" fill="#333333"/>
<path d="M69.713 11.3896C69.445 11.3896 69.188 11.4961 68.9985 11.6856C68.809 11.8751 68.7025 12.1321 68.7025 12.4001V17.2971C68.6718 18.3069 68.249 19.2651 67.5238 19.9685C66.7986 20.6719 65.828 21.0653 64.8178 21.0653C63.8075 21.0653 62.8369 20.6719 62.1118 19.9685C61.3866 19.2651 60.9638 18.3069 60.933 17.2971V12.4001C60.933 12.2674 60.9069 12.136 60.8561 12.0134C60.8053 11.8908 60.7309 11.7794 60.637 11.6856C60.5432 11.5918 60.4318 11.5173 60.3093 11.4666C60.1867 11.4158 60.0553 11.3896 59.9226 11.3896C59.7899 11.3896 59.6585 11.4158 59.5359 11.4666C59.4133 11.5173 59.3019 11.5918 59.2081 11.6856C59.1143 11.7794 59.0398 11.8908 58.989 12.0134C58.9382 12.136 58.9121 12.2674 58.9121 12.4001V17.2971C58.9502 18.8381 59.5891 20.3032 60.6925 21.3796C61.7959 22.4561 63.2763 23.0586 64.8178 23.0586C66.3592 23.0586 67.8396 22.4561 68.943 21.3796C70.0464 20.3032 70.6853 18.8381 70.7234 17.2971V12.4001C70.7234 12.1321 70.617 11.8751 70.4275 11.6856C70.238 11.4961 69.981 11.3896 69.713 11.3896Z" fill="#333333"/>
<path d="M78.976 11.4035H77.1716V9.07586C77.1716 8.94317 77.1455 8.81177 77.0947 8.68918C77.0439 8.56659 76.9695 8.4552 76.8756 8.36137C76.7818 8.26754 76.6704 8.19312 76.5479 8.14234C76.4253 8.09156 76.2939 8.06543 76.1612 8.06543C76.0285 8.06543 75.8971 8.09156 75.7745 8.14234C75.6519 8.19312 75.5405 8.26754 75.4467 8.36137C75.3529 8.4552 75.2784 8.56659 75.2276 8.68918C75.1768 8.81177 75.1507 8.94317 75.1507 9.07586V11.4035H73.3464C73.0784 11.4035 72.8214 11.5099 72.6319 11.6994C72.4424 11.8889 72.3359 12.1459 72.3359 12.4139C72.3359 12.6819 72.4424 12.9389 72.6319 13.1284C72.8214 13.3179 73.0784 13.4244 73.3464 13.4244H75.1507V22.1899C75.1507 22.3226 75.1768 22.454 75.2276 22.5766C75.2784 22.6992 75.3529 22.8106 75.4467 22.9044C75.5405 22.9982 75.6519 23.0727 75.7745 23.1235C75.8971 23.1742 76.0285 23.2004 76.1612 23.2004C76.2939 23.2004 76.4253 23.1742 76.5479 23.1235C76.6704 23.0727 76.7818 22.9982 76.8756 22.9044C76.9695 22.8106 77.0439 22.6992 77.0947 22.5766C77.1455 22.454 77.1716 22.3226 77.1716 22.1899V13.4244H78.976C79.244 13.4244 79.501 13.3179 79.6905 13.1284C79.88 12.9389 79.9864 12.6819 79.9864 12.4139C79.9864 12.1459 79.88 11.8889 79.6905 11.6994C79.501 11.5099 79.244 11.4035 78.976 11.4035Z" fill="#333333"/>
<path d="M138.098 12.4072H140.202C140.873 12.4072 141.284 12.7212 141.76 13.3419L145.228 18.9174H145.257V12.4217H146.289C146.417 12.4187 146.543 12.4416 146.662 12.489C146.78 12.5364 146.887 12.6072 146.977 12.6973C147.067 12.7874 147.138 12.8948 147.186 13.013C147.233 13.1312 147.256 13.2579 147.253 13.3852V22.1219H146.47C145.532 22.1219 145.098 21.927 144.521 21.1584L141.086 15.6298H141.057V22.1255H140.025C139.898 22.129 139.771 22.1065 139.653 22.0596C139.535 22.0126 139.427 21.9421 139.337 21.8523C139.247 21.7625 139.176 21.6553 139.129 21.5373C139.081 21.4192 139.058 21.2928 139.061 21.1656V13.3636C139.061 13.2375 139.035 13.1128 138.987 12.9965C138.938 12.8802 138.867 12.7746 138.777 12.6858C138.688 12.597 138.582 12.5267 138.465 12.4789C138.349 12.4311 138.224 12.4068 138.098 12.4072Z" fill="#00708D"/>
<path d="M149.379 12.4073H157.318C157.445 12.4064 157.571 12.4306 157.688 12.4787C157.805 12.5268 157.912 12.5978 158.002 12.6874C158.091 12.7771 158.162 12.8837 158.21 13.001C158.258 13.1184 158.283 13.2441 158.282 13.3709V14.3488H155.395V22.1076H154.197C154.069 22.1121 153.942 22.0904 153.824 22.0437C153.705 21.9971 153.598 21.9266 153.508 21.8365C153.418 21.7465 153.347 21.6388 153.3 21.5203C153.254 21.4018 153.232 21.2749 153.237 21.1477V14.3488H151.31C151.181 14.3514 151.053 14.3277 150.934 14.2792C150.816 14.2308 150.708 14.1586 150.617 14.0671C150.527 13.9756 150.457 13.8667 150.41 13.7469C150.363 13.6272 150.342 13.4993 150.346 13.3709C150.347 13.2436 150.323 13.1174 150.275 12.9996C150.227 12.8818 150.156 12.7748 150.066 12.685C149.976 12.5952 149.868 12.5244 149.75 12.4767C149.632 12.429 149.506 12.4054 149.379 12.4073Z" fill="#00708D"/>
<path d="M132.504 21.1474V14.6769H133.673C133.8 14.6745 133.927 14.6977 134.045 14.7453C134.163 14.7928 134.27 14.8637 134.36 14.9537C134.45 15.0437 134.521 15.1508 134.568 15.2689C134.616 15.3869 134.639 15.5132 134.637 15.6405V22.1073H133.467C133.341 22.1087 133.215 22.0849 133.098 22.0372C132.981 21.9895 132.874 21.9189 132.784 21.8296C132.694 21.7402 132.624 21.6338 132.575 21.5167C132.527 21.3995 132.503 21.274 132.504 21.1474Z" fill="#00708D"/>
<path d="M120.837 13.3633V21.1401C120.836 21.267 120.859 21.393 120.907 21.5106C120.955 21.6282 121.026 21.7349 121.116 21.8245C121.205 21.9141 121.312 21.9847 121.43 22.032C121.548 22.0793 121.674 22.1025 121.801 22.1H122.974V18.5274L125.648 21.252C126.442 22.0242 126.925 22.1 127.593 22.1H129.145L124.244 17.2571L128.17 13.3633L129.145 12.3926H126.481L122.974 15.9652V13.3561C122.972 13.1011 122.87 12.8572 122.689 12.6769C122.509 12.4966 122.265 12.3945 122.01 12.3926H119.885C120.137 12.4035 120.376 12.5098 120.553 12.69C120.729 12.8702 120.831 13.1109 120.837 13.3633Z" fill="#00708D"/>
<path d="M165.087 12.1768C164.081 12.176 163.098 12.4737 162.261 13.0322C161.424 13.5906 160.772 14.3847 160.387 15.3139C160.001 16.2432 159.9 17.2659 160.097 18.2525C160.293 19.2392 160.777 20.1455 161.488 20.8568C162.2 21.5682 163.106 22.0525 164.093 22.2486C165.079 22.4447 166.102 22.3437 167.031 21.9584C167.96 21.5731 168.755 20.9208 169.313 20.0841C169.871 19.2474 170.169 18.2638 170.168 17.2578C170.167 15.9105 169.632 14.6187 168.679 13.666C167.726 12.7133 166.435 12.1777 165.087 12.1768ZM165.087 20.3938C164.467 20.3938 163.861 20.2099 163.345 19.8653C162.829 19.5207 162.427 19.0309 162.19 18.4579C161.953 17.8849 161.891 17.2543 162.012 16.646C162.133 16.0377 162.431 15.4789 162.87 15.0404C163.308 14.6018 163.867 14.3031 164.476 14.1821C165.084 14.0611 165.714 14.1232 166.287 14.3606C166.86 14.5979 167.35 14.9999 167.695 15.5156C168.039 16.0313 168.223 16.6376 168.223 17.2578C168.223 18.0895 167.893 18.8872 167.305 19.4753C166.717 20.0634 165.919 20.3938 165.087 20.3938Z" fill="#00708D"/>
<path d="M133.648 11.4469C133.485 11.3284 133.289 11.2645 133.088 11.2645C132.887 11.2645 132.691 11.3284 132.529 11.4469C132.289 11.6187 132.123 11.8757 132.066 12.1655C132.009 12.4553 132.065 12.7559 132.222 13.0058C132.371 13.2451 132.588 13.4341 132.845 13.548C133.103 13.662 133.389 13.6956 133.666 13.6446C133.979 13.6161 134.283 13.5217 134.557 13.3674C134.831 13.2132 135.07 13.0026 135.257 12.7496C135.488 12.4102 135.612 12.009 135.612 11.5984C135.612 11.1878 135.488 10.7867 135.257 10.4473C135.07 10.1503 134.808 9.90792 134.498 9.74446C134.188 9.581 133.839 9.50228 133.489 9.51623C132.767 9.51623 132.244 10.0684 131.894 10.4834C131.349 11.1293 131.1 11.2737 130.631 11.3097C130.427 11.3277 130.222 11.303 130.029 11.2371C129.836 11.1712 129.659 11.0657 129.508 10.9272C129.388 10.8065 129.276 10.6775 129.173 10.5411C129.333 10.833 129.54 11.0964 129.786 11.3206C130.006 11.4964 130.268 11.6113 130.546 11.6538C130.824 11.6962 131.108 11.6647 131.371 11.5624C131.875 11.343 132.344 11.0512 132.764 10.6963C132.879 10.6268 133.009 10.5836 133.144 10.5698C133.278 10.5559 133.414 10.5718 133.542 10.6162C133.669 10.6606 133.786 10.7324 133.883 10.8267C133.98 10.921 134.054 11.0354 134.102 11.1618C134.154 11.3307 134.166 11.5091 134.139 11.6835C134.111 11.8579 134.045 12.0238 133.944 12.1686C133.969 12.0326 133.954 11.8923 133.901 11.7643C133.849 11.6364 133.761 11.5262 133.648 11.4469Z" fill="#00708D"/>
<path d="M109.744 19.2279C109.744 20.7616 108.719 21.8731 107.276 21.8731C106.975 21.8909 106.676 21.8312 106.405 21.6997C106.135 21.5683 105.903 21.3695 105.731 21.1224V21.772H104.176V14.2334H105.731V17.3008C105.913 17.0608 106.15 16.8693 106.424 16.7434C106.697 16.6175 106.997 16.561 107.297 16.5791C108.726 16.5791 109.744 17.6942 109.744 19.2279ZM108.138 19.2279C108.152 19.0642 108.13 18.8995 108.075 18.7447C108.02 18.5899 107.933 18.4485 107.82 18.3299C107.706 18.2112 107.569 18.1179 107.416 18.0563C107.264 17.9946 107.101 17.9659 106.936 17.972C106.618 17.9892 106.319 18.1276 106.1 18.3589C105.881 18.5902 105.758 18.8966 105.758 19.2152C105.758 19.5338 105.881 19.8403 106.1 20.0716C106.319 20.3028 106.618 20.4413 106.936 20.4584C107.099 20.4671 107.262 20.441 107.413 20.3819C107.565 20.3227 107.702 20.2318 107.816 20.1154C107.93 19.9989 108.017 19.8594 108.073 19.7064C108.128 19.5534 108.151 19.3902 108.138 19.2279Z" fill="#00708D"/>
<path d="M115.944 16.6797L113.779 22.3454C113.418 23.3558 112.826 23.8899 111.743 23.8899C111.407 23.8969 111.073 23.8355 110.762 23.7095L110.942 22.4139C111.103 22.4721 111.273 22.5026 111.444 22.5042C111.642 22.5201 111.84 22.4699 112.006 22.3615C112.173 22.2532 112.299 22.0926 112.364 21.9051L112.487 21.5911L110.491 16.6797H112.184L113.288 19.8481L114.32 16.6797H115.944Z" fill="#00708D"/>
</g>
<defs>
<clipPath id="clip0_2223_41041">
<rect width="168" height="30.5441" fill="white" transform="translate(2.17188 1)"/>
</clipPath>
</defs>
</svg>
